<?xml version="1.0" encoding="UTF-8"?>
<svg width="196px" height="97px" viewBox="0 0 196 97" version="1.1" xmlns="http://www.w3.org/2000/svg" xmlns:xlink="http://www.w3.org/1999/xlink">
    <!-- Generator: Sketch 60.1 (88133) - https://sketch.com -->
    <title>fast-fast-top-varieties</title>
    <desc>Created with Sketch.</desc>
    <defs>
        <rect id="path-1" x="0" y="0" width="209" height="102"></rect>
    </defs>
    <g id="fast-facts-" stroke="none" stroke-width="1" fill="none" fill-rule="evenodd">
        <g id="FAST-FACTS" transform="translate(-582.000000, -1583.000000)">
            <g id="fast-fast-top-varieties" transform="translate(574.000000, 1578.000000)">
                <mask id="mask-2" fill="white">
                    <use xlink:href="#path-1"></use>
                </mask>
                <g id="Mask"></g>
                <g id="Group-7" mask="url(#mask-2)" stroke="#AC795C" stroke-width="5">
                    <g transform="translate(10.986138, 7.263158)" id="Path">
                        <path d="M47.7174343,142.473684 C99.6254494,142.473684 142.040578,100.058555 142.040578,48.1505401 C142.040578,-4.58487103 99.6254494,-47 47.7174343,-47" opacity="0.32359096" transform="translate(94.879006, 47.736842) rotate(-90.000000) translate(-94.879006, -47.736842) "></path>
                        <path d="M47.7174343,142.473684 C99.6254494,142.473684 142.040578,100.058555 142.040578,48.1505401 C142.040578,-4.58487103 99.6254494,-47 47.7174343,-47" transform="translate(94.879006, 47.736842) rotate(-90.000000) translate(-94.879006, -47.736842) "></path>
                        <path d="M54.0056439,136.185475 C98.9925903,136.185475 135.752369,99.4256962 135.752369,54.4387497 C135.752369,8.73472673 98.9925903,-28.0250517 54.0056439,-28.0250517" opacity="0.32359096" transform="translate(94.879006, 54.080211) rotate(-90.000000) translate(-94.879006, -54.080211) "></path>
                        <path d="M64.5546185,79.1798307 C49.8077065,57.4099029 24.9970603,43.1726986 -3,43.1726986" stroke-linecap="round" transform="translate(30.777309, 61.176265) rotate(-90.000000) translate(-30.777309, -61.176265) "></path>
                        <path d="M60.2938535,129.897265 C98.3597312,129.897265 129.464159,98.7928371 129.464159,60.7269593 C129.464159,22.0543245 98.3597312,-9.05010342 60.2938535,-9.05010342" opacity="0.32359096" transform="translate(94.879006, 60.423581) rotate(-90.000000) translate(-94.879006, -60.423581) "></path>
                        <path d="M58.4637254,80.7920035 C46.0759791,69.0944785 29.4317478,61.9503304 11.188592,61.9503304" stroke-linecap="round" transform="translate(34.826159, 71.371167) rotate(-90.000000) translate(-34.826159, -71.371167) "></path>
                        <path d="M66.5820631,123.609055 C97.7268722,123.609055 123.17595,98.159978 123.17595,67.0151689 C123.17595,35.3739222 97.7268722,9.92484486 66.5820631,9.92484486" opacity="0.32359096" transform="translate(94.879006, 66.766950) rotate(-90.000000) translate(-94.879006, -66.766950) "></path>
                        <path d="M57.3146235,84.4158233 C48.6213077,78.943182 38.358353,75.7861709 27.388831,75.7861709" stroke-linecap="round" transform="translate(42.351727, 80.100997) rotate(-90.000000) translate(-42.351727, -80.100997) "></path>
                        <path d="M73.4990936,116.692025 C97.0307272,116.692025 116.258919,97.463833 116.258919,73.9321995 C116.258919,50.0254798 97.0307272,30.797288 73.4990936,30.797288" opacity="0.32359096" transform="translate(94.879006, 73.744656) rotate(-90.000000) translate(-94.879006, -73.744656) "></path>
                        <path d="M67.1664336,86.9351147 C60.428834,82.4776895 52.3751081,79.8897733 43.7421835,79.8897733" stroke-linecap="round" transform="translate(55.454309, 83.412444) rotate(-90.000000) translate(-55.454309, -83.412444) "></path>
                        <path d="M80.0556002,110.674466 C96.3708661,110.674466 109.702412,97.1016244 109.702412,80.4910595 C109.702412,63.615728 96.3708661,50.0428867 80.0556002,50.0428867" opacity="0.32359096" transform="translate(94.879006, 80.358676) rotate(-90.000000) translate(-94.879006, -80.358676) "></path>
                        <path d="M72.2249071,90.3503714 C68.4238481,88.533536 64.1890368,87.520392 59.7315059,87.520392" stroke-linecap="round" transform="translate(65.978206, 88.935382) rotate(-90.000000) translate(-65.978206, -88.935382) "></path>
                    </g>
                </g>
            </g>
        </g>
    </g>
</svg>